<svg width="81" height="28" xmlns="http://www.w3.org/2000/svg"><path fill="#1677ff" d="M28.1 19s-.9-.1-5-1.4c-1.1-.4-2.6-.9-4.3-1.6 1-1.7 1.8-3.7 2.3-5.9h-5.5v-2h6.8V7h-6.8V3.7h-2.8c-.5 0-.5.5-.5.5V7H5.5v1.1h6.9v2H6.7v1.1h11c-.4 1.4-.9 2.7-1.6 3.9-3.6-1.2-7.4-2.1-9.7-1.5-1.5.4-2.5 1-3.1 1.7-2.7 3.2-.7 8.1 4.8 8.1 3.3 0 6.5-1.8 9-4.9 3.7 1.8 11 4.8 11 4.8v.2c0 2.5-2 4.5-4.5 4.5H4.5C2 28 0 26 0 23.5v-19C0 2 2 0 4.5 0h19.1c2.5 0 4.5 2 4.5 4.5V19zM7.6 21.5c-4.4 0-5.7-3.4-3.5-5.3.7-.6 2-.9 2.7-1 2.6-.3 5 .7 7.8 2.1-1.9 2.6-4.5 4.2-7 4.2z"/><path d="M69.5 4.4h8.2V6h2.9V4.1c0-.4-.3-.8-.8-.8h-4.7V1.8H72v1.5h-5.5V6h2.9l.1-1.6zM51.8 1.9l-3 7.1h2.3v8.4h2.5V6.3h-.9l1.9-4.4zM80.9 17.1l-.9-3.2c-.1-.2-.2-.3-.5-.3h-2.4l.7 2.4h-2.9v-4.6h5.6v-1.1h-5.6V8.1h5.6V7H66.5v1.1h5.6v2.2h-5.6v1.1h5.6V16h-5.6v1.1h14.4zM57.7 7.4h-2.2l1.7 5.3h2.6l-1.6-5c-.1-.2-.3-.3-.5-.3"/><path d="M63.7 2.1h-2.6v2.7h-6.4v1.1h6.4v9.8c0 .2-.2.4-.4.4h-1.3v1.1h3.4c.5 0 1-.5 1-1V5.9h1.1V4.8h-1.1V2.1h-.1zM48.4 16.4c-2.4-.9-4.3-1.8-5.7-2.7 2.1-1.6 4-3.7 4.8-6.6h-5V5.2h5.8V4.1h-5.8V1.8h-2.6c-.3 0-.5.2-.5.5V4h-5.8v1.1h5.8V7h-4.9v1.1h9.7s-.5 2.1-3.2 4.3c-2.4-1.8-3.2-3.2-3.2-3.2h-2.6c1.1 1.8 2.5 3.3 4.2 4.4-1.5 1-3.4 1.9-5.9 2.6v1.3s3.8-.7 7.5-2.9c3.7 2.2 7.4 2.9 7.4 2.9v-1.1zM38.1 21.4l.9 2.7h-1.8l.9-2.7zm1.1 3.5.4 1.3h1.2l-2.4-6.5h-.9l-2.4 6.5h1.2l.5-1.3h2.4zM44.7 19.7v6.5h3.9v-.9h-2.7v-5.6zM52.9 26.2h1.2v-6.5h-1.2zM61.3 22.8H60v-2.2h1.3c.6 0 1 .6 1 1.1 0 .5-.4 1.1-1 1.1m0-3.1h-2.5v6.5H60v-2.5h1.4c1.3 0 2.1-.8 2.1-2s-.9-2-2.2-2M69.2 21.4l.9 2.7h-1.8l.9-2.7zm1.1 3.5.4 1.3H72l-2.4-6.5h-.9l-2.4 6.5h1.2l.5-1.3h2.3zM78.5 19.7l-1.3 2.8-1.3-2.8h-1.3l2 3.8v2.7h1.2v-2.7l1.9-3.8z"/></svg>